<svg width="14" height="14" viewBox="0 0 14 14" fill="none" xmlns="http://www.w3.org/2000/svg">
<path d="M13.0001 3.94352C12.8824 4.00447 12.7453 4.01619 12.619 3.97611C12.4926 3.93603 12.3874 3.84742 12.3263 3.72977C11.8491 2.78695 11.1267 1.99008 10.2351 1.4229C10.1795 1.38785 10.1314 1.3422 10.0935 1.28856C10.0556 1.23492 10.0286 1.17433 10.0141 1.11026C9.99956 1.04618 9.99781 0.979881 10.0089 0.915133C10.02 0.850385 10.0438 0.788461 10.0788 0.732895C10.1139 0.67733 10.1595 0.629211 10.2132 0.591287C10.2668 0.553363 10.3274 0.526376 10.3915 0.511867C10.4556 0.497358 10.5219 0.495611 10.5866 0.506725C10.6514 0.51784 10.7133 0.541599 10.7688 0.576645C11.808 1.24198 12.6517 2.17137 13.2138 3.26977C13.2748 3.38747 13.2865 3.52455 13.2464 3.65089C13.2064 3.77723 13.1177 3.88248 13.0001 3.94352ZM1.23197 3.99977C1.32357 3.99973 1.4134 3.97453 1.49166 3.92692C1.56991 3.8793 1.63358 3.81111 1.67572 3.72977C2.15297 2.78695 2.87535 1.99008 3.76697 1.4229C3.87919 1.35212 3.95869 1.23966 3.988 1.11026C4.0173 0.980856 3.994 0.845115 3.92322 0.732895C3.85244 0.620676 3.73998 0.541169 3.61058 0.511867C3.48118 0.482564 3.34544 0.505866 3.23322 0.576645C2.1941 1.24198 1.35033 2.17137 0.788218 3.26977C0.748742 3.34597 0.729543 3.43105 0.732468 3.51682C0.735394 3.60258 0.760346 3.68616 0.804923 3.75949C0.8495 3.83282 0.912202 3.89345 0.986994 3.93553C1.06179 3.97761 1.14615 3.99973 1.23197 3.99977ZM12.8632 10.496C12.9518 10.6479 12.9988 10.8205 12.9994 10.9963C13 11.1722 12.9542 11.3451 12.8667 11.4976C12.7791 11.6501 12.6529 11.7768 12.5008 11.865C12.3486 11.9531 12.1759 11.9996 12.0001 11.9998H9.45009C9.33534 12.5649 9.02873 13.073 8.58222 13.438C8.13572 13.8029 7.57677 14.0023 7.00009 14.0023C6.42342 14.0023 5.86447 13.8029 5.41796 13.438C4.97146 13.073 4.66485 12.5649 4.55009 11.9998H2.00009C1.82436 11.9994 1.65181 11.9528 1.49985 11.8645C1.34788 11.7763 1.22186 11.6495 1.13447 11.497C1.04708 11.3446 1.00142 11.1718 1.00207 10.996C1.00273 10.8203 1.04969 10.6478 1.13822 10.496C1.70134 9.52415 2.00009 8.14227 2.00009 6.49977C2.00009 5.17369 2.52688 3.90192 3.46456 2.96424C4.40224 2.02655 5.67401 1.49977 7.00009 1.49977C8.32618 1.49977 9.59795 2.02655 10.5356 2.96424C11.4733 3.90192 12.0001 5.17369 12.0001 6.49977C12.0001 8.14165 12.2988 9.52352 12.8632 10.496ZM8.41384 11.9998H5.58634C5.68993 12.2919 5.88147 12.5448 6.13463 12.7236C6.38779 12.9024 6.69014 12.9985 7.00009 12.9985C7.31005 12.9985 7.61239 12.9024 7.86555 12.7236C8.11871 12.5448 8.31025 12.2919 8.41384 11.9998ZM12.0001 10.9998C11.3351 9.85789 11.0001 8.34415 11.0001 6.49977C11.0001 5.4389 10.5787 4.42149 9.82852 3.67134C9.07837 2.9212 8.06096 2.49977 7.00009 2.49977C5.93923 2.49977 4.92181 2.9212 4.17167 3.67134C3.42152 4.42149 3.00009 5.4389 3.00009 6.49977C3.00009 8.34477 2.66384 9.85852 2.00009 10.9998H12.0001Z" fill="white"/>
</svg>
