<svg width="12" height="13" viewBox="0 0 12 13" fill="none" xmlns="http://www.w3.org/2000/svg">
<path d="M11.3538 2.64625L8.85375 0.14625C8.80728 0.099833 8.75212 0.063026 8.69143 0.037932C8.63073 0.0128379 8.56568 -5.14929e-05 8.5 1.54599e-07H3.5C3.23478 1.54599e-07 2.98043 0.105357 2.79289 0.292893C2.60536 0.48043 2.5 0.734784 2.5 1V2H1.5C1.23478 2 0.98043 2.10536 0.792893 2.29289C0.605357 2.48043 0.5 2.73478 0.5 3V12C0.5 12.2652 0.605357 12.5196 0.792893 12.7071C0.98043 12.8946 1.23478 13 1.5 13H8.5C8.76522 13 9.01957 12.8946 9.20711 12.7071C9.39464 12.5196 9.5 12.2652 9.5 12V11H10.5C10.7652 11 11.0196 10.8946 11.2071 10.7071C11.3946 10.5196 11.5 10.2652 11.5 10V3C11.5001 2.93432 11.4872 2.86927 11.4621 2.80858C11.437 2.74788 11.4002 2.69272 11.3538 2.64625ZM8.5 12H1.5V3H6.29313L8.5 5.20687V10.49C8.5 10.4937 8.5 10.4969 8.5 10.5C8.5 10.5031 8.5 10.5063 8.5 10.51V12ZM10.5 10H9.5V5C9.50005 4.93432 9.48716 4.86927 9.46207 4.80858C9.43697 4.74788 9.40017 4.69272 9.35375 4.64625L6.85375 2.14625C6.80728 2.09983 6.75212 2.06303 6.69143 2.03793C6.63073 2.01284 6.56568 1.99995 6.5 2H3.5V1H8.29313L10.5 3.20688V10ZM7 8C7 8.13261 6.94732 8.25979 6.85355 8.35355C6.75979 8.44732 6.63261 8.5 6.5 8.5H3.5C3.36739 8.5 3.24021 8.44732 3.14645 8.35355C3.05268 8.25979 3 8.13261 3 8C3 7.86739 3.05268 7.74021 3.14645 7.64645C3.24021 7.55268 3.36739 7.5 3.5 7.5H6.5C6.63261 7.5 6.75979 7.55268 6.85355 7.64645C6.94732 7.74021 7 7.86739 7 8ZM7 10C7 10.1326 6.94732 10.2598 6.85355 10.3536C6.75979 10.4473 6.63261 10.5 6.5 10.5H3.5C3.36739 10.5 3.24021 10.4473 3.14645 10.3536C3.05268 10.2598 3 10.1326 3 10C3 9.86739 3.05268 9.74021 3.14645 9.64645C3.24021 9.55268 3.36739 9.5 3.5 9.5H6.5C6.63261 9.5 6.75979 9.55268 6.85355 9.64645C6.94732 9.74021 7 9.86739 7 10Z" fill="white"/>
</svg>
