<svg width="20" height="20" viewBox="0 0 20 20" fill="none" xmlns="http://www.w3.org/2000/svg">
<path d="M14.3301 0.25H5.33008C3.93815 0.251489 2.60366 0.805091 1.61941 1.78933C0.635169 2.77358 0.0815671 4.10807 0.0800781 5.5V14.5C0.0815671 15.8919 0.635169 17.2264 1.61941 18.2107C2.60366 19.1949 3.93815 19.7485 5.33008 19.75H14.3301C15.722 19.7485 17.0565 19.1949 18.0407 18.2107C19.025 17.2264 19.5786 15.8919 19.5801 14.5V5.5C19.5786 4.10807 19.025 2.77358 18.0407 1.78933C17.0565 0.805091 15.722 0.251489 14.3301 0.25ZM9.83008 14.5C8.94006 14.5 8.07003 14.2361 7.33001 13.7416C6.58999 13.2471 6.01322 12.5443 5.67262 11.7221C5.33203 10.8998 5.24291 9.99501 5.41654 9.12209C5.59018 8.24918 6.01876 7.44736 6.6481 6.81802C7.27743 6.18868 8.07926 5.7601 8.95217 5.58647C9.82509 5.41283 10.7299 5.50195 11.5522 5.84254C12.3744 6.18314 13.0772 6.75991 13.5717 7.49993C14.0662 8.23995 14.3301 9.10998 14.3301 10C14.3288 11.1931 13.8543 12.337 13.0107 13.1806C12.167 14.0243 11.0232 14.4988 9.83008 14.5ZM15.4551 5.5C15.2326 5.5 15.0151 5.43402 14.8301 5.3104C14.6451 5.18679 14.5009 5.01109 14.4157 4.80552C14.3306 4.59995 14.3083 4.37375 14.3517 4.15552C14.3951 3.93729 14.5022 3.73684 14.6596 3.5795C14.8169 3.42217 15.0174 3.31502 15.2356 3.27162C15.4538 3.22821 15.68 3.25049 15.8856 3.33564C16.0912 3.42078 16.2669 3.56498 16.3905 3.74998C16.5141 3.93499 16.5801 4.1525 16.5801 4.375C16.5801 4.67337 16.4616 4.95952 16.2506 5.1705C16.0396 5.38147 15.7534 5.5 15.4551 5.5ZM12.8301 10C12.8301 10.5933 12.6541 11.1734 12.3245 11.6667C11.9948 12.1601 11.5263 12.5446 10.9781 12.7716C10.4299 12.9987 9.82675 13.0581 9.24481 12.9424C8.66286 12.8266 8.12831 12.5409 7.70876 12.1213C7.2892 11.7018 7.00348 11.1672 6.88772 10.5853C6.77197 10.0033 6.83138 9.40013 7.05844 8.85195C7.2855 8.30377 7.67002 7.83524 8.16337 7.50559C8.65672 7.17595 9.23673 7 9.83008 7C10.6257 7 11.3888 7.31607 11.9514 7.87868C12.514 8.44129 12.8301 9.20435 12.8301 10Z" fill="white"/>
</svg>
