<svg width="14" height="14" viewBox="0 0 14 14" fill="none" xmlns="http://www.w3.org/2000/svg">
<path d="M5.50004 1.00004V0.500041C5.50004 0.367433 5.55272 0.240256 5.64649 0.146488C5.74026 0.0527195 5.86743 4.11376e-05 6.00004 4.11376e-05C6.13265 4.11376e-05 6.25983 0.0527195 6.35359 0.146488C6.44736 0.240256 6.50004 0.367433 6.50004 0.500041V1.00004C6.50004 1.13265 6.44736 1.25983 6.35359 1.35359C6.25983 1.44736 6.13265 1.50004 6.00004 1.50004C5.86743 1.50004 5.74026 1.44736 5.64649 1.35359C5.55272 1.25983 5.50004 1.13265 5.50004 1.00004ZM1.00004 6.00004H1.50004C1.63265 6.00004 1.75983 5.94736 1.85359 5.85359C1.94736 5.75983 2.00004 5.63265 2.00004 5.50004C2.00004 5.36743 1.94736 5.24026 1.85359 5.14649C1.75983 5.05272 1.63265 5.00004 1.50004 5.00004H1.00004C0.867433 5.00004 0.740256 5.05272 0.646488 5.14649C0.55272 5.24026 0.500041 5.36743 0.500041 5.50004C0.500041 5.63265 0.55272 5.75983 0.646488 5.85359C0.740256 5.94736 0.867433 6.00004 1.00004 6.00004ZM7.77629 1.94754C7.83505 1.97697 7.89903 1.99452 7.96458 1.9992C8.03013 2.00388 8.09596 1.99559 8.1583 1.97481C8.22064 1.95403 8.27828 1.92117 8.32791 1.87809C8.37754 1.83502 8.41819 1.78259 8.44754 1.72379L8.94754 0.723791C9.00688 0.60519 9.01668 0.467872 8.97478 0.342047C8.93288 0.216222 8.84271 0.112196 8.7241 0.0528537C8.6055 -0.00648853 8.46818 -0.0162859 8.34236 0.0256167C8.21653 0.0675194 8.11251 0.15769 8.05317 0.276291L7.55317 1.27629C7.52372 1.33501 7.50613 1.39896 7.50141 1.46448C7.49668 1.53 7.50492 1.59581 7.52564 1.65815C7.54636 1.72049 7.57916 1.77813 7.62217 1.82779C7.66518 1.87744 7.71755 1.91814 7.77629 1.94754ZM1.77629 7.05317L0.776291 7.55317C0.65769 7.61251 0.567519 7.71653 0.525617 7.84236C0.483714 7.96818 0.493511 8.1055 0.552854 8.2241C0.612196 8.34271 0.716222 8.43288 0.842047 8.47478C0.967872 8.51668 1.10519 8.50688 1.22379 8.44754L2.22379 7.94754C2.28252 7.91816 2.33488 7.87749 2.37789 7.82788C2.4209 7.77826 2.45372 7.72065 2.47447 7.65835C2.49521 7.59605 2.50349 7.53027 2.49881 7.46477C2.49414 7.39927 2.47661 7.33533 2.44723 7.2766C2.41785 7.21788 2.37718 7.16551 2.32756 7.1225C2.27794 7.07949 2.22034 7.04668 2.15804 7.02593C2.09573 7.00518 2.02995 6.99691 1.96445 7.00158C1.89895 7.00625 1.83502 7.02378 1.77629 7.05317ZM13.7069 11C13.7998 11.0929 13.8735 11.2032 13.9237 11.3245C13.974 11.4458 13.9999 11.5759 13.9999 11.7072C13.9999 11.8386 13.974 11.9686 13.9237 12.09C13.8735 12.2113 13.7998 12.3216 13.7069 12.4144L12.9144 13.2069C12.8216 13.2998 12.7113 13.3735 12.59 13.4237C12.4686 13.474 12.3386 13.4999 12.2072 13.4999C12.0759 13.4999 11.9458 13.474 11.8245 13.4237C11.7032 13.3735 11.5929 13.2998 11.5 13.2069L8.29379 10L7.18754 12.8807C7.18754 12.8869 7.18254 12.8938 7.17942 12.9007C7.10289 13.0791 6.97558 13.231 6.81332 13.3376C6.65107 13.4442 6.46104 13.5007 6.26692 13.5H6.21754C6.01508 13.4915 5.82014 13.4209 5.65907 13.298C5.498 13.175 5.37856 13.0056 5.31692 12.8125L2.05004 2.80754C1.99396 2.63256 1.98717 2.44552 2.03042 2.26694C2.07367 2.08836 2.16529 1.92514 2.29522 1.79522C2.42514 1.66529 2.58836 1.57367 2.76694 1.53042C2.94552 1.48717 3.13256 1.49396 3.30754 1.55004L13.3125 4.81692C13.5038 4.88088 13.6712 5.00116 13.7928 5.16196C13.9145 5.32277 13.9847 5.51659 13.9942 5.718C14.0037 5.91941 13.9521 6.11899 13.8462 6.29056C13.7403 6.46213 13.585 6.59768 13.4007 6.67942L13.3807 6.68754L10.5 7.79317L13.7069 11ZM13 11.7069L9.79317 8.50004C9.67774 8.38482 9.59224 8.24312 9.54413 8.08729C9.49601 7.93146 9.48674 7.76622 9.51713 7.60599C9.54751 7.44575 9.61662 7.29538 9.71844 7.16797C9.82026 7.04057 9.9517 6.94001 10.1013 6.87504L10.1213 6.86629L12.9932 5.76379L3.00004 2.50004L6.26254 12.4913L7.36567 9.61629C7.36567 9.60942 7.37067 9.60254 7.37379 9.59567C7.43878 9.44619 7.53932 9.31486 7.66666 9.21312C7.794 9.11138 7.94428 9.04231 8.10442 9.01192C8.16626 9.00045 8.22902 8.99459 8.29192 8.99442C8.55687 8.99471 8.81088 9.10013 8.99817 9.28754L12.2069 12.5L13 11.7069Z" fill="white"/>
</svg>
