<svg width="15" height="15" viewBox="0 0 15 15" fill="none" xmlns="http://www.w3.org/2000/svg">
<path d="M11.3488 7.56625L8.1251 6.375L6.9376 3.14875C6.86728 2.95771 6.74005 2.79283 6.57307 2.67637C6.4061 2.5599 6.20743 2.49746 6.00385 2.49746C5.80027 2.49746 5.6016 2.5599 5.43462 2.67637C5.26765 2.79283 5.14042 2.95771 5.0701 3.14875L3.8751 6.375L0.648849 7.5625C0.457805 7.63282 0.292928 7.76005 0.176466 7.92702C0.0600027 8.094 -0.00244141 8.29267 -0.00244141 8.49625C-0.00244141 8.69983 0.0600027 8.8985 0.176466 9.06548C0.292928 9.23245 0.457805 9.35968 0.648849 9.43L3.8751 10.625L5.0626 13.8512C5.13292 14.0423 5.26015 14.2072 5.42712 14.3236C5.5941 14.4401 5.79277 14.5025 5.99635 14.5025C6.19993 14.5025 6.3986 14.4401 6.56557 14.3236C6.73255 14.2072 6.85978 14.0423 6.9301 13.8512L8.1251 10.625L11.3513 9.4375C11.5424 9.36718 11.7073 9.23995 11.8237 9.07298C11.9402 8.906 12.0026 8.70733 12.0026 8.50375C12.0026 8.30017 11.9402 8.1015 11.8237 7.93452C11.7073 7.76755 11.5424 7.64032 11.3513 7.57L11.3488 7.56625ZM7.5626 9.76375C7.49473 9.78876 7.4331 9.8282 7.38195 9.87935C7.3308 9.9305 7.29136 9.99213 7.26635 10.06L6.0001 13.4906L4.73635 10.0625C4.71138 9.99392 4.67169 9.93163 4.62008 9.88002C4.56847 9.82841 4.50618 9.78872 4.4376 9.76375L1.00947 8.5L4.4376 7.23625C4.50618 7.21128 4.56847 7.17159 4.62008 7.11998C4.67169 7.06837 4.71138 7.00608 4.73635 6.9375L6.0001 3.50938L7.26385 6.9375C7.28886 7.00537 7.3283 7.067 7.37945 7.11815C7.4306 7.1693 7.49223 7.20874 7.5601 7.23375L10.9907 8.5L7.5626 9.76375ZM8.0001 2C8.0001 1.86739 8.05278 1.74021 8.14655 1.64645C8.24031 1.55268 8.36749 1.5 8.5001 1.5H9.5001V0.5C9.5001 0.367392 9.55278 0.240215 9.64655 0.146447C9.74031 0.0526784 9.86749 0 10.0001 0C10.1327 0 10.2599 0.0526784 10.3537 0.146447C10.4474 0.240215 10.5001 0.367392 10.5001 0.5V1.5H11.5001C11.6327 1.5 11.7599 1.55268 11.8537 1.64645C11.9474 1.74021 12.0001 1.86739 12.0001 2C12.0001 2.13261 11.9474 2.25979 11.8537 2.35355C11.7599 2.44732 11.6327 2.5 11.5001 2.5H10.5001V3.5C10.5001 3.63261 10.4474 3.75979 10.3537 3.85355C10.2599 3.94732 10.1327 4 10.0001 4C9.86749 4 9.74031 3.94732 9.64655 3.85355C9.55278 3.75979 9.5001 3.63261 9.5001 3.5V2.5H8.5001C8.36749 2.5 8.24031 2.44732 8.14655 2.35355C8.05278 2.25979 8.0001 2.13261 8.0001 2ZM14.5001 5C14.5001 5.13261 14.4474 5.25979 14.3537 5.35355C14.2599 5.44732 14.1327 5.5 14.0001 5.5H13.5001V6C13.5001 6.13261 13.4474 6.25979 13.3537 6.35355C13.2599 6.44732 13.1327 6.5 13.0001 6.5C12.8675 6.5 12.7403 6.44732 12.6465 6.35355C12.5528 6.25979 12.5001 6.13261 12.5001 6V5.5H12.0001C11.8675 5.5 11.7403 5.44732 11.6465 5.35355C11.5528 5.25979 11.5001 5.13261 11.5001 5C11.5001 4.86739 11.5528 4.74021 11.6465 4.64645C11.7403 4.55268 11.8675 4.5 12.0001 4.5H12.5001V4C12.5001 3.86739 12.5528 3.74021 12.6465 3.64645C12.7403 3.55268 12.8675 3.5 13.0001 3.5C13.1327 3.5 13.2599 3.55268 13.3537 3.64645C13.4474 3.74021 13.5001 3.86739 13.5001 4V4.5H14.0001C14.1327 4.5 14.2599 4.55268 14.3537 4.64645C14.4474 4.74021 14.5001 4.86739 14.5001 5Z" fill="white"/>
</svg>
