<svg width="14" height="11" viewBox="0 0 14 11" fill="none" xmlns="http://www.w3.org/2000/svg">
<path d="M13.5 10.5C13.5 10.6326 13.4473 10.7598 13.3536 10.8536C13.2598 10.9473 13.1326 11 13 11H1C0.867392 11 0.740215 10.9473 0.646447 10.8536C0.552678 10.7598 0.5 10.6326 0.5 10.5V0.5C0.5 0.367392 0.552678 0.240215 0.646447 0.146447C0.740215 0.0526785 0.867392 0 1 0C1.13261 0 1.25979 0.0526785 1.35355 0.146447C1.44732 0.240215 1.5 0.367392 1.5 0.5V6.39812L4.67063 3.625C4.7569 3.54947 4.86652 3.5059 4.9811 3.50157C5.09569 3.49725 5.20828 3.53244 5.3 3.60125L8.97563 6.35812L12.6706 3.125C12.7191 3.07704 12.7768 3.0395 12.8403 3.01467C12.9038 2.98985 12.9717 2.97827 13.0398 2.98065C13.1079 2.98303 13.1749 2.99931 13.2365 3.0285C13.2981 3.05769 13.3531 3.09917 13.398 3.15038C13.443 3.2016 13.4771 3.26148 13.4981 3.32633C13.5191 3.39119 13.5266 3.45965 13.5201 3.52752C13.5137 3.59538 13.4935 3.66122 13.4607 3.72097C13.4279 3.78073 13.3832 3.83314 13.3294 3.875L9.32938 7.375C9.2431 7.45053 9.13348 7.4941 9.0189 7.49843C8.90431 7.50275 8.79173 7.46756 8.7 7.39875L5.02437 4.64313L1.5 7.72688V10H13C13.1326 10 13.2598 10.0527 13.3536 10.1464C13.4473 10.2402 13.5 10.3674 13.5 10.5Z" fill="white"/>
</svg>
