<svg width="14" height="13" viewBox="0 0 14 13" fill="none" xmlns="http://www.w3.org/2000/svg">
<path d="M0.999986 2.5C0.999986 2.36739 1.05266 2.24021 1.14643 2.14645C1.2402 2.05268 1.36738 2 1.49999 2H2.49999V1C2.49999 0.867392 2.55266 0.740215 2.64643 0.646447C2.7402 0.552679 2.86738 0.5 2.99999 0.5C3.13259 0.5 3.25977 0.552679 3.35354 0.646447C3.44731 0.740215 3.49999 0.867392 3.49999 1V2H4.49999C4.63259 2 4.75977 2.05268 4.85354 2.14645C4.94731 2.24021 4.99999 2.36739 4.99999 2.5C4.99999 2.63261 4.94731 2.75979 4.85354 2.85355C4.75977 2.94732 4.63259 3 4.49999 3H3.49999V4C3.49999 4.13261 3.44731 4.25979 3.35354 4.35355C3.25977 4.44732 3.13259 4.5 2.99999 4.5C2.86738 4.5 2.7402 4.44732 2.64643 4.35355C2.55266 4.25979 2.49999 4.13261 2.49999 4V3H1.49999C1.36738 3 1.2402 2.94732 1.14643 2.85355C1.05266 2.75979 0.999986 2.63261 0.999986 2.5ZM9.49999 10.5H8.99999V10C8.99999 9.86739 8.94731 9.74021 8.85354 9.64645C8.75977 9.55268 8.63259 9.5 8.49999 9.5C8.36738 9.5 8.2402 9.55268 8.14643 9.64645C8.05266 9.74021 7.99999 9.86739 7.99999 10V10.5H7.49999C7.36738 10.5 7.2402 10.5527 7.14643 10.6464C7.05266 10.7402 6.99999 10.8674 6.99999 11C6.99999 11.1326 7.05266 11.2598 7.14643 11.3536C7.2402 11.4473 7.36738 11.5 7.49999 11.5H7.99999V12C7.99999 12.1326 8.05266 12.2598 8.14643 12.3536C8.2402 12.4473 8.36738 12.5 8.49999 12.5C8.63259 12.5 8.75977 12.4473 8.85354 12.3536C8.94731 12.2598 8.99999 12.1326 8.99999 12V11.5H9.49999C9.63259 11.5 9.75977 11.4473 9.85354 11.3536C9.94731 11.2598 9.99999 11.1326 9.99999 11C9.99999 10.8674 9.94731 10.7402 9.85354 10.6464C9.75977 10.5527 9.63259 10.5 9.49999 10.5ZM13 7.5H12V6.5C12 6.36739 11.9473 6.24021 11.8535 6.14645C11.7598 6.05268 11.6326 6 11.5 6C11.3674 6 11.2402 6.05268 11.1464 6.14645C11.0527 6.24021 11 6.36739 11 6.5V7.5H9.99999C9.86738 7.5 9.7402 7.55268 9.64643 7.64645C9.55266 7.74021 9.49999 7.86739 9.49999 8C9.49999 8.13261 9.55266 8.25979 9.64643 8.35355C9.7402 8.44732 9.86738 8.5 9.99999 8.5H11V9.5C11 9.63261 11.0527 9.75979 11.1464 9.85355C11.2402 9.94732 11.3674 10 11.5 10C11.6326 10 11.7598 9.94732 11.8535 9.85355C11.9473 9.75979 12 9.63261 12 9.5V8.5H13C13.1326 8.5 13.2598 8.44732 13.3535 8.35355C13.4473 8.25979 13.5 8.13261 13.5 8C13.5 7.86739 13.4473 7.74021 13.3535 7.64645C13.2598 7.55268 13.1326 7.5 13 7.5ZM11.7069 3.5L2.99999 12.2069C2.81247 12.3943 2.55821 12.4995 2.29311 12.4995C2.02801 12.4995 1.77375 12.3943 1.58624 12.2069L0.292486 10.9144C0.199603 10.8215 0.125923 10.7113 0.075654 10.5899C0.025385 10.4686 -0.000488281 10.3385 -0.000488281 10.2072C-0.000488281 10.0758 0.025385 9.94579 0.075654 9.82445C0.125923 9.70311 0.199603 9.59286 0.292486 9.5L8.99999 0.793125C9.09285 0.700242 9.2031 0.626562 9.32444 0.576293C9.44578 0.526024 9.57583 0.500151 9.70717 0.500151C9.83851 0.500151 9.96857 0.526024 10.0899 0.576293C10.2113 0.626562 10.3215 0.700242 10.4144 0.793125L11.7069 2.08562C11.7997 2.17849 11.8734 2.28874 11.9237 2.41008C11.974 2.53142 11.9998 2.66147 11.9998 2.79281C11.9998 2.92415 11.974 3.05421 11.9237 3.17555C11.8734 3.29689 11.7997 3.40714 11.7069 3.5ZM8.29249 5.5L6.99999 4.20687L0.999986 10.2069L2.29249 11.5L8.29249 5.5ZM11 2.79313L9.70686 1.5L7.70686 3.5L8.99999 4.79313L11 2.79313Z" fill="white"/>
</svg>
