<svg width="18" height="18" viewBox="0 0 18 18" fill="none" xmlns="http://www.w3.org/2000/svg">
<path d="M16.9862 17.6109C16.9216 17.7286 16.8267 17.8267 16.7112 17.8951C16.5958 17.9636 16.4641 17.9998 16.33 18H11.83C11.7037 18 11.5796 17.9681 11.4689 17.9073C11.3583 17.8465 11.2648 17.7587 11.1971 17.6522L7.40121 11.6869L1.88495 17.7544C1.75048 17.8988 1.56449 17.9845 1.36731 17.9927C1.17013 18.0009 0.977644 17.9311 0.831591 17.7984C0.685538 17.6657 0.597687 17.4807 0.587085 17.2836C0.576483 17.0866 0.643985 16.8933 0.774955 16.7456L6.56589 10.3706L0.697142 1.15313C0.624862 1.03973 0.5844 0.908984 0.579993 0.774582C0.575585 0.64018 0.607394 0.507066 0.67209 0.389177C0.736785 0.271288 0.831986 0.172962 0.947724 0.104494C1.06346 0.0360256 1.19548 -6.53095e-05 1.32995 8.87202e-08H5.82995C5.95618 3.91221e-05 6.08036 0.0319361 6.19098 0.0927355C6.30159 0.153535 6.39508 0.24127 6.46277 0.347813L10.2587 6.31312L15.775 0.245625C15.9094 0.101174 16.0954 0.015547 16.2926 0.00730857C16.4898 -0.00092985 16.6823 0.0688843 16.8283 0.201615C16.9744 0.334346 17.0622 0.519295 17.0728 0.716365C17.0834 0.913434 17.0159 1.10674 16.885 1.25438L11.094 7.62469L16.9628 16.8478C17.0346 16.9613 17.0747 17.0919 17.0789 17.2262C17.083 17.3604 17.051 17.4933 16.9862 17.6109Z" fill="white"/>
</svg>
