<svg width="22" height="18" viewBox="0 0 22 18" fill="none" xmlns="http://www.w3.org/2000/svg">
<path d="M20.7985 3.5175C20.7102 3.17189 20.5409 2.85224 20.3047 2.58491C20.0685 2.31758 19.7722 2.11024 19.4401 1.98C16.2263 0.738753 11.1113 0.750004 10.8301 0.750004C10.5488 0.750004 5.43383 0.738753 2.22008 1.98C1.88798 2.11024 1.59161 2.31758 1.35542 2.58491C1.11922 2.85224 0.949977 3.17189 0.861641 3.5175C0.618828 4.45313 0.330078 6.16313 0.330078 9C0.330078 11.8369 0.618828 13.5469 0.861641 14.4825C0.949845 14.8283 1.11903 15.1481 1.35523 15.4156C1.59143 15.6831 1.88787 15.8906 2.22008 16.0209C5.29883 17.2088 10.1176 17.25 10.7682 17.25H10.892C11.5426 17.25 16.3641 17.2088 19.4401 16.0209C19.7723 15.8906 20.0687 15.6831 20.3049 15.4156C20.5411 15.1481 20.7103 14.8283 20.7985 14.4825C21.0413 13.545 21.3301 11.8369 21.3301 9C21.3301 6.16313 21.0413 4.45313 20.7985 3.5175ZM13.8854 9.61125L10.1354 12.2363C10.0232 12.3148 9.89166 12.3612 9.755 12.3703C9.61834 12.3794 9.4818 12.351 9.36017 12.288C9.23855 12.225 9.1365 12.1299 9.06509 12.013C8.99368 11.8962 8.95563 11.762 8.95508 11.625V6.375C8.95512 6.2378 8.99279 6.10324 9.064 5.98597C9.1352 5.86869 9.23722 5.77319 9.35893 5.70987C9.48064 5.64655 9.6174 5.61783 9.7543 5.62683C9.89121 5.63584 10.023 5.68222 10.1354 5.76094L13.8854 8.38594C13.984 8.45512 14.0646 8.54704 14.1202 8.65393C14.1758 8.76081 14.2048 8.87952 14.2048 9C14.2048 9.12049 14.1758 9.23919 14.1202 9.34608C14.0646 9.45297 13.984 9.54489 13.8854 9.61407V9.61125Z" fill="white"/>
</svg>
